<svg width="42" height="42" viewBox="0 0 42 42" fill="none" xmlns="http://www.w3.org/2000/svg">
<path d="M10.5 35C8.575 35 6.92708 34.3146 5.55625 32.9437C4.18542 31.5729 3.5 29.925 3.5 28V14C3.5 12.075 4.18542 10.4271 5.55625 9.05625C6.92708 7.68542 8.575 7 10.5 7H31.5C33.425 7 35.0729 7.68542 36.4437 9.05625C37.8146 10.4271 38.5 12.075 38.5 14V28C38.5 29.925 37.8146 31.5729 36.4437 32.9437C35.0729 34.3146 33.425 35 31.5 35H10.5ZM10.5 14H31.5C32.1417 14 32.7542 14.0729 33.3375 14.2187C33.9208 14.3646 34.475 14.5979 35 14.9187V14C35 13.0375 34.6573 12.2135 33.9719 11.5281C33.2865 10.8427 32.4625 10.5 31.5 10.5H10.5C9.5375 10.5 8.71354 10.8427 8.02812 11.5281C7.34271 12.2135 7 13.0375 7 14V14.9187C7.525 14.5979 8.07917 14.3646 8.6625 14.2187C9.24583 14.0729 9.85833 14 10.5 14ZM7.2625 19.6875L26.7312 24.4125C26.9937 24.4708 27.2563 24.4708 27.5187 24.4125C27.7812 24.3542 28.0292 24.2375 28.2625 24.0625L34.3438 18.9875C34.0229 18.55 33.6146 18.1927 33.1187 17.9156C32.6229 17.6385 32.0833 17.5 31.5 17.5H10.5C9.74167 17.5 9.07812 17.6969 8.50938 18.0906C7.94062 18.4844 7.525 19.0167 7.2625 19.6875Z" fill="#00D09E"/>
</svg>
