<svg width="33" height="30" viewBox="0 0 33 30" fill="none" xmlns="http://www.w3.org/2000/svg">
<rect width="32.2642" height="30" rx="12.4528" fill="#00D09E"/>
<path d="M9.59859 13.0448H23.0416M10.1835 6.79199V10.0078M13.9612 6.79199V10.0078M18.6815 6.79199V10.0078M22.4592 6.79199V10.0078M8.08903 8.64382H24.5537C24.7474 8.64382 24.9332 8.72078 25.0702 8.85778C25.2072 8.99478 25.2842 9.18058 25.2842 9.37433V21.1443C25.2842 21.5412 25.1265 21.9219 24.8458 22.2026C24.5651 22.4834 24.1844 22.641 23.7874 22.641H8.8553C8.45833 22.641 8.07762 22.4834 7.79692 22.2026C7.51622 21.9219 7.35852 21.5412 7.35852 21.1443V9.37433C7.35852 9.18058 7.43548 8.99478 7.57248 8.85778C7.70948 8.72078 7.89529 8.64382 8.08903 8.64382Z" stroke="#093030" stroke-width="1.27712" stroke-linecap="round" stroke-linejoin="round"/>
</svg>
