<svg width="35" height="34" viewBox="0 0 35 34" fill="none" xmlns="http://www.w3.org/2000/svg">
<path d="M29.0481 28.0699C31.8219 25.0517 33.3608 21.1018 33.3603 17.0026C33.3603 14.8547 32.9372 12.7278 32.1151 10.7435C31.293 8.75918 30.088 6.95626 28.5689 5.4377C27.0499 3.91915 25.2466 2.71472 23.262 1.89322C21.2774 1.07172 19.1505 0.649236 17.0026 0.649902C12.6656 0.649902 8.5063 2.37276 5.43958 5.43949C2.37286 8.50621 0.649994 12.6656 0.649994 17.0026C0.650256 20.7308 1.92433 24.347 4.26133 27.2519C6.59833 30.1567 9.85795 32.1758 13.4996 32.9745V22.2115H8.80847V17.3275H13.5046V13.0883C13.5046 11.7943 14.0187 10.5534 14.9337 9.6384C15.8487 8.72343 17.0895 8.20941 18.3834 8.20941H22.6988V13.0934H20.3076C19.7973 13.0934 19.308 13.2961 18.9471 13.6569C18.5863 14.0178 18.3834 14.5072 18.3834 15.0175V17.3275H23.0644V22.2115H18.3834V33.2994C22.4681 32.9545 26.2744 31.0881 29.0481 28.0699Z" stroke="#0E3E3E" stroke-width="1.3" stroke-linecap="round" stroke-linejoin="round"/>
</svg>
