<svg width="34" height="34" viewBox="0 0 34 34" fill="none" xmlns="http://www.w3.org/2000/svg">
<path d="M25.1103 10.9865C24.0756 9.59591 22.7002 8.49543 21.1165 7.79114C19.5327 7.08685 17.7942 6.80251 16.0686 6.96555C13.7656 7.18774 11.6081 8.19213 9.9555 9.81145C8.30292 11.4308 7.25491 13.5673 6.98596 15.8653C6.82429 17.279 6.96313 18.7108 7.3935 20.067C7.82387 21.4232 8.53606 22.6732 9.48326 23.7349C10.4305 24.7967 11.5913 25.6463 12.8898 26.2281C14.1883 26.8098 15.5949 27.1106 17.0178 27.1107C19.5556 27.1099 22.0003 26.1535 23.8649 24.4319C25.7295 22.7103 26.8775 20.3497 27.0803 17.82C27.0873 17.7175 27.073 17.6148 27.0387 17.518C27.0044 17.4212 26.9507 17.3325 26.8808 17.2574C26.8109 17.1822 26.7262 17.1222 26.6321 17.081C26.5381 17.0398 26.4366 17.0183 26.3339 17.0178H17.1194M33.3553 17.0026C33.3553 26.0339 26.034 33.3552 17.0027 33.3552C7.97134 33.3552 0.649994 26.0339 0.649994 17.0026C0.649994 7.97124 7.97134 0.649902 17.0027 0.649902C26.034 0.649902 33.3553 7.97124 33.3553 17.0026Z" stroke="#0E3E3E" stroke-width="1.3" stroke-linecap="round" stroke-linejoin="round"/>
</svg>
