<svg width="30" height="30" viewBox="0 0 30 30" fill="none" xmlns="http://www.w3.org/2000/svg">
<rect width="30" height="30" rx="15" fill="#DFF7E2"/>
<path d="M21.3892 20.4889L21.3954 19.8461H21.3892V20.4889ZM22.0854 18.9691L21.5607 19.3406L21.5693 19.3527L21.5784 19.3644L22.0854 18.9691ZM20.4791 15.0974L21.1123 14.9863L21.1109 14.9788L20.4791 15.0974ZM19.1012 8.4368L19.6084 8.04175L19.6071 8.04011L19.1012 8.4368ZM15.0003 6.40025L15.0018 5.75738L14.9982 5.75739L15.0003 6.40025ZM10.8994 8.4368L10.3939 8.03962L10.3923 8.04175L10.8994 8.4368ZM9.52519 15.0974L8.89328 14.979L8.892 14.9863L9.52519 15.0974ZM7.91891 18.9691L8.42241 19.3688L8.43337 19.355L8.44355 19.3406L7.91891 18.9691ZM8.61508 20.4889V19.846L8.60288 19.8462L8.61508 20.4889ZM14.3611 6.40026C14.3611 6.7553 14.6489 7.04311 15.004 7.04311C15.359 7.04311 15.6468 6.7553 15.6468 6.40026H14.3611ZM15.6468 5.14258C15.6468 4.78754 15.359 4.49972 15.004 4.49972C14.6489 4.49972 14.3611 4.78754 14.3611 5.14258H15.6468ZM15.0003 23.9997L15.0017 23.3569H15.0003L15.0003 23.9997ZM21.383 21.1318C21.6805 21.1347 21.9704 21.0485 22.2184 20.8866L21.5157 19.8099C21.4771 19.8351 21.4355 19.8465 21.3954 19.8461L21.383 21.1318ZM22.2184 20.8866C22.466 20.725 22.6605 20.4956 22.7828 20.2286L21.6138 19.6932C21.59 19.7452 21.5546 19.7845 21.5157 19.8099L22.2184 20.8866ZM22.7828 20.2286C22.905 19.9618 22.9514 19.6661 22.9183 19.3751L21.6408 19.5205C21.6477 19.5808 21.6377 19.641 21.6138 19.6932L22.7828 20.2286ZM22.9183 19.3751C22.8851 19.084 22.7733 18.8059 22.5923 18.5738L21.5784 19.3644C21.6111 19.4063 21.6339 19.4603 21.6408 19.5205L22.9183 19.3751ZM22.61 18.5976C21.8551 17.5315 21.3421 16.2962 21.1123 14.9863L19.8459 15.2085C20.1081 16.7031 20.6941 18.1168 21.5607 19.3406L22.61 18.5976ZM21.1109 14.9788C21.0121 14.4523 20.9698 13.9084 20.9405 13.3382C20.9119 12.7819 20.8951 12.1751 20.8439 11.5926C20.7398 10.4076 20.4848 9.1668 19.6084 8.04175L18.5941 8.83184C19.2479 9.67116 19.4678 10.6207 19.5631 11.7051C19.6117 12.2572 19.6257 12.8047 19.6565 13.4041C19.6865 13.9895 19.7322 14.6026 19.8473 15.216L21.1109 14.9788ZM19.6071 8.04011C19.0512 7.33116 18.3506 6.75732 17.5542 6.3618L16.9824 7.51334C17.6038 7.82197 18.1551 8.27209 18.5954 8.83349L19.6071 8.04011ZM17.5542 6.3618C16.7577 5.96622 15.886 5.75941 15.0018 5.75739L14.9989 7.0431C15.6838 7.04467 16.361 7.20477 16.9824 7.51334L17.5542 6.3618ZM14.9982 5.75739C14.1144 5.7603 13.2432 5.9675 12.4469 6.36292L13.0188 7.51445C13.6402 7.20584 14.3174 7.04535 15.0025 7.0431L14.9982 5.75739ZM12.4469 6.36292C11.6508 6.75827 10.9503 7.33148 10.3939 8.03963L11.4049 8.83397C11.8457 8.27297 12.3972 7.82313 13.0188 7.51445L12.4469 6.36292ZM10.3923 8.04175C9.51579 9.16697 9.26172 10.4071 9.15852 11.5916C9.10779 12.1738 9.09145 12.7807 9.06321 13.3369C9.03425 13.9073 8.99215 14.4516 8.89333 14.979L10.157 15.2158C10.2722 14.6014 10.3175 13.9878 10.3473 13.4021C10.3777 12.8024 10.3913 12.2551 10.4394 11.7032C10.5338 10.6194 10.7529 9.67099 11.4066 8.83184L10.3923 8.04175ZM8.892 14.9863C8.66218 16.2962 8.14918 17.5315 7.39426 18.5976L8.44355 19.3406C9.31017 18.1168 9.89616 16.7031 10.1584 15.2085L8.892 14.9863ZM7.41541 18.5694C7.23143 18.8012 7.11719 19.0802 7.08264 19.3727L8.35948 19.5235C8.36656 19.4635 8.38966 19.4101 8.42241 19.3688L7.41541 18.5694ZM7.08264 19.3727C7.04809 19.6651 7.09416 19.9627 7.21702 20.2309L8.38594 19.6955C8.36215 19.6435 8.35239 19.5835 8.35948 19.5235L7.08264 19.3727ZM7.21702 20.2309C7.33996 20.4993 7.53596 20.7296 7.78578 20.8911L8.48359 19.8112C8.44494 19.7862 8.40965 19.7472 8.38594 19.6955L7.21702 20.2309ZM7.78578 20.8911C8.03594 21.0527 8.32813 21.1374 8.62727 21.1317L8.60288 19.8462C8.56318 19.847 8.52189 19.8359 8.48359 19.8112L7.78578 20.8911ZM8.61508 21.1318H21.3892V19.8461H8.61508V21.1318ZM15.6468 6.40026V5.14258H14.3611V6.40026H15.6468ZM16.1922 22.0784C16.1925 22.2504 16.1604 22.4202 16.0983 22.5777L17.2944 23.0492C17.4164 22.7398 17.4785 22.4091 17.4779 22.0759L16.1922 22.0784ZM16.0983 22.5777C16.0362 22.7352 15.9458 22.8764 15.8337 22.9939L16.7638 23.8815C16.9926 23.6418 17.1724 23.3587 17.2944 23.0492L16.0983 22.5777ZM15.8337 22.9939C15.7216 23.1114 15.5901 23.2028 15.4477 23.2644L15.9584 24.4443C16.2615 24.3131 16.535 24.1213 16.7638 23.8815L15.8337 22.9939ZM15.4477 23.2644C15.3053 23.3261 15.1538 23.3572 15.0017 23.3569L14.999 24.6426C15.329 24.6433 15.6551 24.5756 15.9584 24.4443L15.4477 23.2644ZM15.0003 23.3569C14.8484 23.3569 14.6972 23.3255 14.555 23.2637L14.0425 24.4429C14.3452 24.5744 14.6707 24.6426 15.0003 24.6426L15.0003 23.3569ZM14.555 23.2637C14.4128 23.2019 14.2816 23.1104 14.1698 22.993L13.2388 23.8797C13.4671 24.1195 13.7399 24.3113 14.0425 24.4429L14.555 23.2637ZM14.1698 22.993C14.0579 22.8755 13.9677 22.7345 13.9058 22.5771L12.7094 23.0481C12.8311 23.3572 13.0105 23.6401 13.2388 23.8797L14.1698 22.993ZM13.9058 22.5771C13.8438 22.4198 13.8118 22.2502 13.8121 22.0784L12.5264 22.0759C12.5258 22.4087 12.5877 22.7389 12.7094 23.0481L13.9058 22.5771Z" fill="#093030"/>
</svg>
